<svg viewBox="0 0 200 200" xmlns="http://www.w3.org/2000/svg" role="img" aria-label="Fine dining cloche service">
  <ellipse cx="100" cy="150" rx="78" ry="18" fill="#000" opacity="0.35"/>
  <!-- plate -->
  <ellipse cx="100" cy="146" rx="76" ry="17" fill="#FBF8F3"/>
  <ellipse cx="100" cy="143" rx="76" ry="17" fill="#F3ECE0"/>
  <ellipse cx="100" cy="143" rx="60" ry="12" fill="#E9E0D2"/>
  <!-- cloche dome -->
  <path d="M40 143 a60 58 0 0 1 120 0 z" fill="#C7CBD0"/>
  <path d="M44 143 a56 54 0 0 1 112 0 z" fill="#DDE1E6"/>
  <path d="M52 143 a48 46 0 0 1 96 0 z" fill="#C7CBD0" opacity="0.5"/>
  <!-- highlight -->
  <path d="M70 130 a42 42 0 0 1 34 -42" stroke="#F4F7FA" stroke-width="6" fill="none" stroke-linecap="round" opacity="0.85"/>
  <path d="M120 96 a34 34 0 0 1 14 20" stroke="#EEF2F6" stroke-width="4" fill="none" stroke-linecap="round" opacity="0.6"/>
  <!-- knob -->
  <circle cx="100" cy="84" r="8" fill="#E23A2E"/>
  <circle cx="97" cy="81" r="2.6" fill="#F0897E" opacity="0.8"/>
  <rect x="97" y="90" width="6" height="6" rx="2" fill="#AEB4BB"/>
  <!-- steam -->
  <g stroke="#C7CBD0" stroke-width="3" stroke-linecap="round" fill="none" opacity="0.5">
    <path d="M84 70 q-6 -10 0 -20"/><path d="M116 70 q6 -10 0 -20"/>
  </g>
</svg>
