<svg viewBox="0 0 200 200" xmlns="http://www.w3.org/2000/svg" role="img" aria-label="Plated pasta">
  <circle cx="100" cy="105" r="88" fill="#000" opacity="0.35"/>
  <circle cx="100" cy="100" r="88" fill="#FBF8F3"/>
  <circle cx="100" cy="100" r="88" fill="none" stroke="#EBE4D8" stroke-width="4"/>
  <circle cx="100" cy="100" r="70" fill="none" stroke="#F0EAE0" stroke-width="2"/>
  <!-- sauce base -->
  <circle cx="100" cy="100" r="52" fill="#C6291F" opacity="0.9"/>
  <circle cx="100" cy="100" r="52" fill="#A81E16" opacity="0.3"/>
  <!-- pasta nest -->
  <g stroke="#EBC15E" stroke-width="4" fill="none" stroke-linecap="round" opacity="0.95">
    <path d="M70 96 q30 -22 60 0 q-10 20 -30 20 q-24 2 -30 -20"/>
    <path d="M74 104 q26 -14 52 0 q-12 14 -26 14 q-16 0 -26 -14"/>
    <path d="M78 90 q22 -12 44 2"/>
    <path d="M76 110 q24 8 48 -2"/>
    <path d="M84 84 q16 -6 32 4"/>
  </g>
  <g stroke="#D9A93F" stroke-width="2.4" fill="none" stroke-linecap="round" opacity="0.8">
    <path d="M72 100 q28 -16 56 2"/><path d="M78 108 q22 8 44 -2"/>
  </g>
  <!-- basil -->
  <path d="M100 74 q10 -8 16 0 q-8 8 -16 0 z" fill="#4E7A3A"/>
  <path d="M88 78 q-8 -6 -14 0 q6 8 14 0 z" fill="#5E8C46"/>
  <!-- parmesan flecks + chili -->
  <g fill="#F6EFDB"><circle cx="92" cy="92" r="2"/><circle cx="110" cy="98" r="2"/><circle cx="100" cy="108" r="2"/></g>
  <g fill="#8E1B14"><circle cx="118" cy="112" r="2.4"/><circle cx="82" cy="106" r="2"/></g>
</svg>
