<svg viewBox="0 0 200 200" xmlns="http://www.w3.org/2000/svg" role="img" aria-label="Plated steak main course">
  <circle cx="100" cy="105" r="88" fill="#000" opacity="0.35"/>
  <circle cx="100" cy="100" r="88" fill="#FBF8F3"/>
  <circle cx="100" cy="100" r="88" fill="none" stroke="#EBE4D8" stroke-width="4"/>
  <circle cx="100" cy="100" r="70" fill="none" stroke="#F0EAE0" stroke-width="2"/>
  <!-- red jus swoosh -->
  <path d="M40 122 q34 -20 66 -8 q26 10 52 -4 q-16 22 -50 18 q-40 -4 -68 -6 z" fill="#C6291F" opacity="0.85"/>
  <path d="M46 120 q30 -14 58 -6" stroke="#8E1B14" stroke-width="2" fill="none" opacity="0.6"/>
  <!-- steak medallion -->
  <ellipse cx="94" cy="100" rx="36" ry="27" fill="#5A3320"/>
  <ellipse cx="94" cy="95" rx="36" ry="24" fill="#743F24"/>
  <ellipse cx="94" cy="91" rx="30" ry="17" fill="#8A4A28"/>
  <ellipse cx="94" cy="88" rx="20" ry="9" fill="#A45C34" opacity="0.8"/>
  <!-- grill marks -->
  <g stroke="#4A2A18" stroke-width="2.4" opacity="0.7"><path d="M74 86 l16 10"/><path d="M86 82 l16 10"/><path d="M98 84 l14 9"/></g>
  <!-- micro greens / garnish -->
  <g stroke="#4E7A3A" stroke-width="2" stroke-linecap="round" fill="none"><path d="M120 78 q6 -12 2 -20"/><path d="M126 82 q10 -6 18 -8"/><path d="M116 76 q-2 -12 -8 -18"/></g>
  <g fill="#6AA34A"><circle cx="120" cy="60" r="3"/><circle cx="140" cy="72" r="2.6"/><circle cx="108" cy="58" r="2.6"/></g>
  <!-- roasted tomato -->
  <circle cx="132" cy="112" r="9" fill="#D33A2C"/><circle cx="128" cy="108" r="3" fill="#E86B5C" opacity="0.7"/>
  <!-- sauce dots -->
  <g fill="#C6291F"><circle cx="60" cy="96" r="3"/><circle cx="150" cy="126" r="2.6"/></g>
</svg>
